<!DOCTYPE svg PUBLIC "-//W3C//DTD SVG 20010904//EN" "http://www.w3.org/TR/2001/REC-SVG-20010904/DTD/svg10.dtd">
<svg version="1.0" xmlns="http://www.w3.org/2000/svg" width="164px" height="235px" viewBox="0 0 1640 2350" preserveAspectRatio="xMidYMid meet">
<g id="layer1" fill="#fffcfb" stroke="none">
 <path d="M745 2160 c-82 -11 -178 -45 -247 -86 -101 -62 -238 -215 -238 -267 0 -19 6 -20 333 -12 182 4 335 10 340 14 4 4 -16 81 -45 172 -54 166 -64 190 -76 188 -4 -1 -34 -5 -67 -9z"/>
 <path d="M906 2151 c-9 -14 189 -626 202 -626 6 0 61 45 122 100 61 55 125 112 142 126 l31 26 -32 59 c-84 157 -247 277 -433 318 -15 3 -29 2 -32 -3z"/>
 <path d="M222 1718 c-16 -21 -32 -114 -32 -186 0 -94 23 -192 65 -277 41 -83 128 -186 143 -170 12 12 202 602 202 628 0 15 -16 17 -184 17 -135 0 -186 -3 -194 -12z"/>
 <path d="M1153 1469 c-136 -123 -248 -226 -248 -231 0 -12 269 -208 286 -208 25 0 143 130 183 203 20 35 45 99 56 142 31 121 24 306 -12 313 -10 2 -114 -84 -265 -219z"/>
 <path d="M566 1381 c-4 -6 -60 -177 -110 -338 -6 -18 0 -27 36 -49 124 -78 310 -112 453 -81 90 20 165 52 165 72 0 8 -48 51 -107 94 -60 44 -178 131 -263 195 -85 64 -158 116 -162 116 -4 0 -9 -4 -12 -9z"/>
 </g>
<g id="layer2" fill="#ee693f" stroke="none">
 <path d="M670 2335 c-267 -34 -523 -245 -623 -515 -64 -170 -56 -468 17 -624 19 -42 77 -142 129 -224 51 -81 210 -333 352 -559 183 -294 263 -413 275 -413 13 0 112 150 346 522 399 637 395 630 423 697 25 59 50 212 50 306 1 227 -66 404 -214 563 -137 147 -283 225 -465 248 -124 16 -164 16 -290 -1z m196 -348 l51 -162 -176 -6 c-267 -10 -461 -10 -461 -1 0 18 66 106 113 153 92 90 219 151 352 169 33 4 62 8 65 9 3 0 28 -72 56 -162z m162 121 c129 -41 266 -158 328 -279 l24 -48 -48 -44 c-97 -91 -217 -196 -219 -193 -1 1 -43 130 -93 286 -50 157 -93 290 -95 296 -4 14 14 10 103 -18z m-448 -405 c0 -11 -181 -576 -190 -592 -5 -10 -18 0 -48 38 -109 138 -155 332 -121 504 l12 57 173 0 c96 0 174 -3 174 -7z m849 -174 c2 -158 -61 -311 -175 -427 l-62 -64 -79 58 c-152 112 -183 136 -183 144 0 5 109 106 243 226 l242 217 7 -39 c4 -22 7 -73 7 -115z m-609 -334 c96 -72 199 -148 229 -170 l54 -39 -44 -19 c-180 -77 -408 -55 -586 58 -2 1 75 250 102 333 6 16 4 17 245 -163z"/>
 </g>

</svg>